<svg id="SvgjsSvg1006" width="100%" height="100%" xmlns="http://www.w3.org/2000/svg" version="1.1" xmlns:xlink="http://www.w3.org/1999/xlink" xmlns:svgjs="http://svgjs.com/svgjs" viewBox="0 0 2702 40"><defs id="SvgjsDefs1007"><rect id="SvgjsRect1008" width="10" height="10" fill="#00a1de"></rect></defs><g id="SvgjsG5629"><use id="SvgjsUse5630" xlink:href="#SvgjsRect1008" x="10" y="20"></use><use id="SvgjsUse5631" xlink:href="#SvgjsRect1008" x="26" y="10"></use><use id="SvgjsUse5632" xlink:href="#SvgjsRect1008" x="42" y="10"></use><use id="SvgjsUse5633" xlink:href="#SvgjsRect1008" x="58" y="20"></use><use id="SvgjsUse5634" xlink:href="#SvgjsRect1008" x="74" y="20"></use><use id="SvgjsUse5635" xlink:href="#SvgjsRect1008" x="90" y="10"></use><use id="SvgjsUse5636" xlink:href="#SvgjsRect1008" x="106" y="20"></use><use id="SvgjsUse5637" xlink:href="#SvgjsRect1008" x="122" y="20"></use><use id="SvgjsUse5638" xlink:href="#SvgjsRect1008" x="138" y="10"></use><use id="SvgjsUse5639" xlink:href="#SvgjsRect1008" x="154" y="10"></use><use id="SvgjsUse5640" xlink:href="#SvgjsRect1008" x="170" y="20"></use><use id="SvgjsUse5641" xlink:href="#SvgjsRect1008" x="186" y="20"></use><use id="SvgjsUse5642" xlink:href="#SvgjsRect1008" x="202" y="20"></use><use id="SvgjsUse5643" xlink:href="#SvgjsRect1008" x="218" y="20"></use><use id="SvgjsUse5644" xlink:href="#SvgjsRect1008" x="234" y="20"></use><use id="SvgjsUse5645" xlink:href="#SvgjsRect1008" x="250" y="10"></use><use id="SvgjsUse5646" xlink:href="#SvgjsRect1008" x="266" y="20"></use><use id="SvgjsUse5647" xlink:href="#SvgjsRect1008" x="282" y="20"></use><use id="SvgjsUse5648" xlink:href="#SvgjsRect1008" x="298" y="20"></use><use id="SvgjsUse5649" xlink:href="#SvgjsRect1008" x="314" y="20"></use><use id="SvgjsUse5650" xlink:href="#SvgjsRect1008" x="330" y="20"></use><use id="SvgjsUse5651" xlink:href="#SvgjsRect1008" x="346" y="10"></use><use id="SvgjsUse5652" xlink:href="#SvgjsRect1008" x="362" y="10"></use><use id="SvgjsUse5653" xlink:href="#SvgjsRect1008" x="378" y="10"></use><use id="SvgjsUse5654" xlink:href="#SvgjsRect1008" x="394" y="10"></use><use id="SvgjsUse5655" xlink:href="#SvgjsRect1008" x="410" y="20"></use><use id="SvgjsUse5656" xlink:href="#SvgjsRect1008" x="426" y="20"></use><use id="SvgjsUse5657" xlink:href="#SvgjsRect1008" x="442" y="10"></use><use id="SvgjsUse5658" xlink:href="#SvgjsRect1008" x="458" y="10"></use><use id="SvgjsUse5659" xlink:href="#SvgjsRect1008" x="474" y="10"></use><use id="SvgjsUse5660" xlink:href="#SvgjsRect1008" x="490" y="20"></use><use id="SvgjsUse5661" xlink:href="#SvgjsRect1008" x="506" y="20"></use><use id="SvgjsUse5662" xlink:href="#SvgjsRect1008" x="522" y="10"></use><use id="SvgjsUse5663" xlink:href="#SvgjsRect1008" x="538" y="20"></use><use id="SvgjsUse5664" xlink:href="#SvgjsRect1008" x="554" y="10"></use><use id="SvgjsUse5665" xlink:href="#SvgjsRect1008" x="570" y="10"></use><use id="SvgjsUse5666" xlink:href="#SvgjsRect1008" x="586" y="10"></use><use id="SvgjsUse5667" xlink:href="#SvgjsRect1008" x="602" y="20"></use><use id="SvgjsUse5668" xlink:href="#SvgjsRect1008" x="618" y="20"></use><use id="SvgjsUse5669" xlink:href="#SvgjsRect1008" x="634" y="20"></use><use id="SvgjsUse5670" xlink:href="#SvgjsRect1008" x="650" y="20"></use><use id="SvgjsUse5671" xlink:href="#SvgjsRect1008" x="666" y="10"></use><use id="SvgjsUse5672" xlink:href="#SvgjsRect1008" x="682" y="10"></use><use id="SvgjsUse5673" xlink:href="#SvgjsRect1008" x="698" y="10"></use><use id="SvgjsUse5674" xlink:href="#SvgjsRect1008" x="714" y="10"></use><use id="SvgjsUse5675" xlink:href="#SvgjsRect1008" x="730" y="20"></use><use id="SvgjsUse5676" xlink:href="#SvgjsRect1008" x="746" y="20"></use><use id="SvgjsUse5677" xlink:href="#SvgjsRect1008" x="762" y="10"></use><use id="SvgjsUse5678" xlink:href="#SvgjsRect1008" x="778" y="20"></use><use id="SvgjsUse5679" xlink:href="#SvgjsRect1008" x="794" y="10"></use><use id="SvgjsUse5680" xlink:href="#SvgjsRect1008" x="810" y="10"></use><use id="SvgjsUse5681" xlink:href="#SvgjsRect1008" x="826" y="10"></use><use id="SvgjsUse5682" xlink:href="#SvgjsRect1008" x="842" y="20"></use><use id="SvgjsUse5683" xlink:href="#SvgjsRect1008" x="858" y="20"></use><use id="SvgjsUse5684" xlink:href="#SvgjsRect1008" x="874" y="10"></use><use id="SvgjsUse5685" xlink:href="#SvgjsRect1008" x="890" y="10"></use><use id="SvgjsUse5686" xlink:href="#SvgjsRect1008" x="906" y="20"></use><use id="SvgjsUse5687" xlink:href="#SvgjsRect1008" x="922" y="10"></use><use id="SvgjsUse5688" xlink:href="#SvgjsRect1008" x="938" y="20"></use><use id="SvgjsUse5689" xlink:href="#SvgjsRect1008" x="954" y="20"></use><use id="SvgjsUse5690" xlink:href="#SvgjsRect1008" x="970" y="20"></use><use id="SvgjsUse5691" xlink:href="#SvgjsRect1008" x="986" y="20"></use><use id="SvgjsUse5692" xlink:href="#SvgjsRect1008" x="1002" y="20"></use><use id="SvgjsUse5693" xlink:href="#SvgjsRect1008" x="1018" y="10"></use><use id="SvgjsUse5694" xlink:href="#SvgjsRect1008" x="1034" y="10"></use><use id="SvgjsUse5695" xlink:href="#SvgjsRect1008" x="1050" y="20"></use><use id="SvgjsUse5696" xlink:href="#SvgjsRect1008" x="1066" y="10"></use><use id="SvgjsUse5697" xlink:href="#SvgjsRect1008" x="1082" y="10"></use><use id="SvgjsUse5698" xlink:href="#SvgjsRect1008" x="1098" y="10"></use><use id="SvgjsUse5699" xlink:href="#SvgjsRect1008" x="1114" y="10"></use><use id="SvgjsUse5700" xlink:href="#SvgjsRect1008" x="1130" y="10"></use><use id="SvgjsUse5701" xlink:href="#SvgjsRect1008" x="1146" y="10"></use><use id="SvgjsUse5702" xlink:href="#SvgjsRect1008" x="1162" y="20"></use><use id="SvgjsUse5703" xlink:href="#SvgjsRect1008" x="1178" y="20"></use><use id="SvgjsUse5704" xlink:href="#SvgjsRect1008" x="1194" y="10"></use><use id="SvgjsUse5705" xlink:href="#SvgjsRect1008" x="1210" y="10"></use><use id="SvgjsUse5706" xlink:href="#SvgjsRect1008" x="1226" y="20"></use><use id="SvgjsUse5707" xlink:href="#SvgjsRect1008" x="1242" y="20"></use><use id="SvgjsUse5708" xlink:href="#SvgjsRect1008" x="1258" y="10"></use><use id="SvgjsUse5709" xlink:href="#SvgjsRect1008" x="1274" y="20"></use><use id="SvgjsUse5710" xlink:href="#SvgjsRect1008" x="1290" y="20"></use><use id="SvgjsUse5711" xlink:href="#SvgjsRect1008" x="1306" y="20"></use><use id="SvgjsUse5712" xlink:href="#SvgjsRect1008" x="1322" y="20"></use><use id="SvgjsUse5713" xlink:href="#SvgjsRect1008" x="1338" y="20"></use><use id="SvgjsUse5714" xlink:href="#SvgjsRect1008" x="1354" y="10"></use><use id="SvgjsUse5715" xlink:href="#SvgjsRect1008" x="1370" y="20"></use><use id="SvgjsUse5716" xlink:href="#SvgjsRect1008" x="1386" y="20"></use><use id="SvgjsUse5717" xlink:href="#SvgjsRect1008" x="1402" y="20"></use><use id="SvgjsUse5718" xlink:href="#SvgjsRect1008" x="1418" y="20"></use><use id="SvgjsUse5719" xlink:href="#SvgjsRect1008" x="1434" y="10"></use><use id="SvgjsUse5720" xlink:href="#SvgjsRect1008" x="1450" y="10"></use><use id="SvgjsUse5721" xlink:href="#SvgjsRect1008" x="1466" y="10"></use><use id="SvgjsUse5722" xlink:href="#SvgjsRect1008" x="1482" y="20"></use><use id="SvgjsUse5723" xlink:href="#SvgjsRect1008" x="1498" y="20"></use><use id="SvgjsUse5724" xlink:href="#SvgjsRect1008" x="1514" y="20"></use><use id="SvgjsUse5725" xlink:href="#SvgjsRect1008" x="1530" y="10"></use><use id="SvgjsUse5726" xlink:href="#SvgjsRect1008" x="1546" y="20"></use><use id="SvgjsUse5727" xlink:href="#SvgjsRect1008" x="1562" y="10"></use><use id="SvgjsUse5728" xlink:href="#SvgjsRect1008" x="1578" y="10"></use><use id="SvgjsUse5729" xlink:href="#SvgjsRect1008" x="1594" y="20"></use><use id="SvgjsUse5730" xlink:href="#SvgjsRect1008" x="1610" y="10"></use><use id="SvgjsUse5731" xlink:href="#SvgjsRect1008" x="1626" y="20"></use><use id="SvgjsUse5732" xlink:href="#SvgjsRect1008" x="1642" y="20"></use><use id="SvgjsUse5733" xlink:href="#SvgjsRect1008" x="1658" y="10"></use><use id="SvgjsUse5734" xlink:href="#SvgjsRect1008" x="1674" y="10"></use><use id="SvgjsUse5735" xlink:href="#SvgjsRect1008" x="1690" y="10"></use><use id="SvgjsUse5736" xlink:href="#SvgjsRect1008" x="1706" y="20"></use><use id="SvgjsUse5737" xlink:href="#SvgjsRect1008" x="1722" y="20"></use><use id="SvgjsUse5738" xlink:href="#SvgjsRect1008" x="1738" y="10"></use><use id="SvgjsUse5739" xlink:href="#SvgjsRect1008" x="1754" y="10"></use><use id="SvgjsUse5740" xlink:href="#SvgjsRect1008" x="1770" y="10"></use><use id="SvgjsUse5741" xlink:href="#SvgjsRect1008" x="1786" y="20"></use><use id="SvgjsUse5742" xlink:href="#SvgjsRect1008" x="1802" y="10"></use><use id="SvgjsUse5743" xlink:href="#SvgjsRect1008" x="1818" y="20"></use><use id="SvgjsUse5744" xlink:href="#SvgjsRect1008" x="1834" y="20"></use><use id="SvgjsUse5745" xlink:href="#SvgjsRect1008" x="1850" y="20"></use><use id="SvgjsUse5746" xlink:href="#SvgjsRect1008" x="1866" y="10"></use><use id="SvgjsUse5747" xlink:href="#SvgjsRect1008" x="1882" y="20"></use><use id="SvgjsUse5748" xlink:href="#SvgjsRect1008" x="1898" y="10"></use><use id="SvgjsUse5749" xlink:href="#SvgjsRect1008" x="1914" y="10"></use><use id="SvgjsUse5750" xlink:href="#SvgjsRect1008" x="1930" y="20"></use><use id="SvgjsUse5751" xlink:href="#SvgjsRect1008" x="1946" y="10"></use><use id="SvgjsUse5752" xlink:href="#SvgjsRect1008" x="1962" y="20"></use><use id="SvgjsUse5753" xlink:href="#SvgjsRect1008" x="1978" y="10"></use><use id="SvgjsUse5754" xlink:href="#SvgjsRect1008" x="1994" y="20"></use><use id="SvgjsUse5755" xlink:href="#SvgjsRect1008" x="2010" y="20"></use><use id="SvgjsUse5756" xlink:href="#SvgjsRect1008" x="2026" y="20"></use><use id="SvgjsUse5757" xlink:href="#SvgjsRect1008" x="2042" y="10"></use><use id="SvgjsUse5758" xlink:href="#SvgjsRect1008" x="2058" y="20"></use><use id="SvgjsUse5759" xlink:href="#SvgjsRect1008" x="2074" y="10"></use><use id="SvgjsUse5760" xlink:href="#SvgjsRect1008" x="2090" y="10"></use><use id="SvgjsUse5761" xlink:href="#SvgjsRect1008" x="2106" y="20"></use><use id="SvgjsUse5762" xlink:href="#SvgjsRect1008" x="2122" y="10"></use><use id="SvgjsUse5763" xlink:href="#SvgjsRect1008" x="2138" y="10"></use><use id="SvgjsUse5764" xlink:href="#SvgjsRect1008" x="2154" y="20"></use><use id="SvgjsUse5765" xlink:href="#SvgjsRect1008" x="2170" y="20"></use><use id="SvgjsUse5766" xlink:href="#SvgjsRect1008" x="2186" y="20"></use><use id="SvgjsUse5767" xlink:href="#SvgjsRect1008" x="2202" y="20"></use><use id="SvgjsUse5768" xlink:href="#SvgjsRect1008" x="2218" y="10"></use><use id="SvgjsUse5769" xlink:href="#SvgjsRect1008" x="2234" y="10"></use><use id="SvgjsUse5770" xlink:href="#SvgjsRect1008" x="2250" y="10"></use><use id="SvgjsUse5771" xlink:href="#SvgjsRect1008" x="2266" y="20"></use><use id="SvgjsUse5772" xlink:href="#SvgjsRect1008" x="2282" y="20"></use><use id="SvgjsUse5773" xlink:href="#SvgjsRect1008" x="2298" y="20"></use><use id="SvgjsUse5774" xlink:href="#SvgjsRect1008" x="2314" y="10"></use><use id="SvgjsUse5775" xlink:href="#SvgjsRect1008" x="2330" y="20"></use><use id="SvgjsUse5776" xlink:href="#SvgjsRect1008" x="2346" y="10"></use><use id="SvgjsUse5777" xlink:href="#SvgjsRect1008" x="2362" y="10"></use><use id="SvgjsUse5778" xlink:href="#SvgjsRect1008" x="2378" y="20"></use><use id="SvgjsUse5779" xlink:href="#SvgjsRect1008" x="2394" y="10"></use><use id="SvgjsUse5780" xlink:href="#SvgjsRect1008" x="2410" y="20"></use><use id="SvgjsUse5781" xlink:href="#SvgjsRect1008" x="2426" y="20"></use><use id="SvgjsUse5782" xlink:href="#SvgjsRect1008" x="2442" y="10"></use><use id="SvgjsUse5783" xlink:href="#SvgjsRect1008" x="2458" y="20"></use><use id="SvgjsUse5784" xlink:href="#SvgjsRect1008" x="2474" y="10"></use><use id="SvgjsUse5785" xlink:href="#SvgjsRect1008" x="2490" y="20"></use><use id="SvgjsUse5786" xlink:href="#SvgjsRect1008" x="2506" y="10"></use><use id="SvgjsUse5787" xlink:href="#SvgjsRect1008" x="2522" y="20"></use><use id="SvgjsUse5788" xlink:href="#SvgjsRect1008" x="2538" y="10"></use><use id="SvgjsUse5789" xlink:href="#SvgjsRect1008" x="2554" y="20"></use><use id="SvgjsUse5790" xlink:href="#SvgjsRect1008" x="2570" y="20"></use><use id="SvgjsUse5791" xlink:href="#SvgjsRect1008" x="2586" y="10"></use><use id="SvgjsUse5792" xlink:href="#SvgjsRect1008" x="2602" y="20"></use><use id="SvgjsUse5793" xlink:href="#SvgjsRect1008" x="2618" y="10"></use><use id="SvgjsUse5794" xlink:href="#SvgjsRect1008" x="2634" y="20"></use><use id="SvgjsUse5795" xlink:href="#SvgjsRect1008" x="2650" y="20"></use><use id="SvgjsUse5796" xlink:href="#SvgjsRect1008" x="2666" y="10"></use><use id="SvgjsUse5797" xlink:href="#SvgjsRect1008" x="2682" y="10"></use></g></svg>